<?xml version="1.0" standalone="no"?><!DOCTYPE svg PUBLIC "-//W3C//DTD SVG 20010904//EN" "http://www.w3.org/TR/2001/REC-SVG-20010904/DTD/svg10.dtd"><svg version="1.0" xmlns="http://www.w3.org/2000/svg" width="700.000000pt" height="700.000000pt" viewBox="0 0 700.000000 700.000000" preserveAspectRatio="xMidYMid meet"><metadata>Created by potrace 1.11, written by Peter Selinger 2001-2013</metadata><g transform="translate(0.000000,700.000000) scale(0.100000,-0.100000)"fill="#000000" stroke="none"><path d="M2082 6268 l3 -323 737 -265 c405 -146 733 -268 730 -272 -4 -4 -328-140 -720 -302 -392 -163 -721 -300 -732 -306 -19 -10 -20 -22 -20 -320 0-171 3 -310 8 -310 19 0 2824 1266 2824 1275 0 7 -2711 1106 -2815 1141 -16 5-17 -13 -15 -318z"/><path d="M3468 4157 l-1388 -552 0 -307 c0 -170 2 -308 5 -308 11 0 2771 11132783 1123 9 7 12 80 12 303 0 229 -3 294 -12 293 -7 0 -637 -248 -1400 -552z"/><path d="M2866 2499 c-101 -14 -182 -36 -263 -74 -300 -138 -479 -424 -514-818 -5 -66 -8 -126 -5 -134 5 -11 50 -13 253 -11 l248 3 7 60 c18 138 74 245167 315 67 51 144 72 251 71 98 -1 169 -17 226 -54 114 -71 160 -159 189 -359l6 -38 251 0 251 0 -6 103 c-26 426 -223 740 -549 875 -137 57 -356 83 -51261z"/><path d="M2080 700 l0 -290 1400 0 1400 0 -2 288 -3 287 -1397 3 -1398 2 0-290z"/></g></svg>